# xmcd
#
# Track frame offsets: 
#        150
#        18287
#        37862
#        57100
#        76925
#        83625
#        103687
#        127300
#        147312
#        170125
#        190825
#        215312
#        235287
#        255087
#        275662
#
# Disc length: 3908 seconds
#
# Revision: 5
# Processed by: cddbd v1.4PL0 Copyright (c) Steve Scherf et al.
# Submitted via: ExactAudioCopy v0.90b3
#
DISCID=c80f420f
DTITLE=Rocca - Entre Deux Mondes
DYEAR=1997
DGENRE=Hip-Hop
TTITLE0=Garçon
TTITLE1=La Bonne Connexion
TTITLE2=Entre Deux Mondes
TTITLE3=Les Jeunes De L'Univers
TTITLE4=El Consejo
TTITLE5=L'Original
TTITLE6=Mot Pour Mot feat. Kohndo
TTITLE7=Aux Frontières Du Réel
TTITLE8=En Dehors Des Lois feat. Daddy Lord C
TTITLE9=La Morale
TTITLE10=Sous Un Grand Ciel Gris feat. Raphaël
TTITLE11=Rap Contact II feat. La Cliqua
TTITLE12=Artifices
TTITLE13=La Fama
TTITLE14=Le Hip-Hop Mon Royaume (Bonus)
EXTD=ID3G: 7
EXTT0=
EXTT1=
EXTT2=
EXTT3=
EXTT4=
EXTT5=
EXTT6=
EXTT7=
EXTT8=
EXTT9=
EXTT10=
EXTT11=
EXTT12=
EXTT13=
EXTT14=
PLAYORDER=
